<svg width="86" height="26" viewBox="0 0 86 26" fill="none" xmlns="http://www.w3.org/2000/svg">
<path d="M33.136 18.0311V6.83113H35.408L38.992 14.0631L42.544 6.83113H44.832V18.0311H42.912V10.1271L39.744 16.4631H38.24L35.056 10.1431V18.0311H33.136ZM47.1048 18.0311V6.83113H51.1208C52.0061 6.83113 52.7368 6.98579 53.3128 7.29513C53.8994 7.59379 54.3314 7.99913 54.6088 8.51113C54.8968 9.01246 55.0408 9.58313 55.0408 10.2231C55.0408 10.8205 54.9021 11.3751 54.6248 11.8871C54.3474 12.3991 53.9154 12.8098 53.3288 13.1191C52.7421 13.4285 51.9901 13.5831 51.0728 13.5831H49.0248V18.0311H47.1048ZM52.9448 18.0311L50.5928 13.0871H52.6728L55.1368 18.0311H52.9448ZM49.0248 12.1591H50.9928C51.7074 12.1591 52.2301 11.9885 52.5608 11.6471C52.9021 11.2951 53.0728 10.8365 53.0728 10.2711C53.0728 9.71646 52.9074 9.27379 52.5768 8.94313C52.2461 8.60179 51.7181 8.43113 50.9928 8.43113H49.0248V12.1591ZM60.9329 18.0311V6.83113H65.3169C66.1062 6.83113 66.7622 6.95379 67.2849 7.19913C67.8182 7.44446 68.2182 7.78579 68.4849 8.22313C68.7515 8.64979 68.8849 9.14579 68.8849 9.71113C68.8849 10.2765 68.7622 10.7511 68.5169 11.1351C68.2715 11.5191 67.9462 11.8125 67.5409 12.0151C67.1462 12.2178 66.7142 12.3405 66.2449 12.3831L66.4849 12.2071C66.9862 12.2178 67.4342 12.3511 67.8289 12.6071C68.2342 12.8631 68.5542 13.1991 68.7889 13.6151C69.0235 14.0205 69.1409 14.4738 69.1409 14.9751C69.1409 15.5618 68.9969 16.0898 68.7089 16.5591C68.4315 17.0178 68.0209 17.3805 67.4769 17.6471C66.9329 17.9031 66.2662 18.0311 65.4769 18.0311H60.9329ZM62.8529 16.4631H65.1889C65.8182 16.4631 66.3089 16.3138 66.6609 16.0151C67.0129 15.7165 67.1889 15.3005 67.1889 14.7671C67.1889 14.2338 67.0075 13.8125 66.6449 13.5031C66.2822 13.1831 65.7862 13.0231 65.1569 13.0231H62.8529V16.4631ZM62.8529 11.5671H65.0449C65.6635 11.5671 66.1329 11.4285 66.4529 11.1511C66.7729 10.8631 66.9329 10.4685 66.9329 9.96713C66.9329 9.47646 66.7729 9.09246 66.4529 8.81513C66.1329 8.52713 65.6582 8.38313 65.0289 8.38313H62.8529V11.5671ZM74.6758 18.2231C73.9078 18.2231 73.2144 18.0471 72.5958 17.6951C71.9878 17.3325 71.5078 16.8365 71.1558 16.2071C70.8144 15.5671 70.6438 14.8365 70.6438 14.0151C70.6438 13.1725 70.8198 12.4365 71.1718 11.8071C71.5238 11.1671 72.0038 10.6711 72.6118 10.3191C73.2304 9.95646 73.9238 9.77513 74.6918 9.77513C75.4598 9.77513 76.1478 9.95646 76.7558 10.3191C77.3744 10.6711 77.8544 11.1618 78.1958 11.7911C78.5478 12.4205 78.7238 13.1565 78.7238 13.9991C78.7238 14.8418 78.5478 15.5778 78.1958 16.2071C77.8438 16.8365 77.3584 17.3325 76.7398 17.6951C76.1318 18.0471 75.4438 18.2231 74.6758 18.2231ZM74.6758 16.5751C75.0598 16.5751 75.4064 16.4791 75.7158 16.2871C76.0358 16.0951 76.2918 15.8071 76.4838 15.4231C76.6758 15.0391 76.7718 14.5645 76.7718 13.9991C76.7718 13.4338 76.6758 12.9645 76.4838 12.5911C76.3024 12.2071 76.0518 11.9191 75.7318 11.7271C75.4224 11.5351 75.0758 11.4391 74.6918 11.4391C74.3184 11.4391 73.9718 11.5351 73.6518 11.7271C73.3318 11.9191 73.0758 12.2071 72.8838 12.5911C72.6918 12.9645 72.5958 13.4338 72.5958 13.9991C72.5958 14.5645 72.6918 15.0391 72.8838 15.4231C73.0758 15.8071 73.3264 16.0951 73.6358 16.2871C73.9558 16.4791 74.3024 16.5751 74.6758 16.5751ZM83.7948 18.0311C83.2508 18.0311 82.7761 17.9458 82.3708 17.7751C81.9761 17.6045 81.6668 17.3218 81.4428 16.9271C81.2188 16.5325 81.1068 15.9991 81.1068 15.3271V11.5831H79.7308V9.96713H81.1068L81.3307 7.83913H83.0268V9.96713H85.2188V11.5831H83.0268V15.3271C83.0268 15.7325 83.1121 16.0151 83.2828 16.1751C83.4641 16.3245 83.7628 16.3991 84.1788 16.3991H85.1708V18.0311H83.7948Z" fill="#314158"/>
<path d="M13.443 6.28112V2.11446H9.27637M3.02637 12.5311H5.1097M10.318 11.4895V13.5728M16.568 11.4895V13.5728M21.7764 12.5311H23.8597M9.27637 18.7811L5.1097 22.9478V8.36446C5.1097 7.81192 5.32919 7.28202 5.71989 6.89132C6.1106 6.50062 6.6405 6.28112 7.19303 6.28112H19.693C20.2456 6.28112 20.7755 6.50062 21.1662 6.89132C21.5569 7.28202 21.7764 7.81192 21.7764 8.36446V16.6978C21.7764 17.2503 21.5569 17.7802 21.1662 18.1709C20.7755 18.5616 20.2456 18.7811 19.693 18.7811H9.27637Z" stroke="#314158" stroke-width="1.66667" stroke-linecap="round" stroke-linejoin="round"/>
</svg>
