<svg width="86" height="26" viewBox="0 0 86 26" fill="none" xmlns="http://www.w3.org/2000/svg">
<path d="M32.2588 18.3517V7.15168H34.5308L38.1148 14.3837L41.6668 7.15168H43.9548V18.3517H42.0348V10.4477L38.8668 16.7837H37.3628L34.1788 10.4637V18.3517H32.2588ZM46.2276 18.3517V7.15168H50.2436C51.1289 7.15168 51.8596 7.30635 52.4356 7.61568C53.0222 7.91435 53.4542 8.31968 53.7316 8.83168C54.0196 9.33302 54.1636 9.90368 54.1636 10.5437C54.1636 11.141 54.0249 11.6957 53.7476 12.2077C53.4702 12.7197 53.0382 13.1304 52.4516 13.4397C51.8649 13.749 51.1129 13.9037 50.1956 13.9037H48.1476V18.3517H46.2276ZM52.0676 18.3517L49.7156 13.4077H51.7956L54.2596 18.3517H52.0676ZM48.1476 12.4797H50.1156C50.8302 12.4797 51.3529 12.309 51.6836 11.9677C52.0249 11.6157 52.1956 11.157 52.1956 10.5917C52.1956 10.037 52.0302 9.59435 51.6996 9.26368C51.3689 8.92235 50.8409 8.75168 50.1156 8.75168H48.1476V12.4797ZM60.0557 18.3517V7.15168H64.4397C65.229 7.15168 65.885 7.27435 66.4077 7.51968C66.941 7.76502 67.341 8.10635 67.6077 8.54368C67.8743 8.97035 68.0077 9.46635 68.0077 10.0317C68.0077 10.597 67.885 11.0717 67.6397 11.4557C67.3943 11.8397 67.069 12.133 66.6637 12.3357C66.269 12.5384 65.837 12.661 65.3677 12.7037L65.6077 12.5277C66.109 12.5384 66.557 12.6717 66.9517 12.9277C67.357 13.1837 67.677 13.5197 67.9117 13.9357C68.1463 14.341 68.2637 14.7944 68.2637 15.2957C68.2637 15.8824 68.1197 16.4104 67.8317 16.8797C67.5543 17.3384 67.1437 17.701 66.5997 17.9677C66.0557 18.2237 65.389 18.3517 64.5997 18.3517H60.0557ZM61.9757 16.7837H64.3117C64.941 16.7837 65.4317 16.6344 65.7837 16.3357C66.1357 16.037 66.3117 15.621 66.3117 15.0877C66.3117 14.5544 66.1303 14.133 65.7677 13.8237C65.405 13.5037 64.909 13.3437 64.2797 13.3437H61.9757V16.7837ZM61.9757 11.8877H64.1677C64.7863 11.8877 65.2557 11.749 65.5757 11.4717C65.8957 11.1837 66.0557 10.789 66.0557 10.2877C66.0557 9.79702 65.8957 9.41302 65.5757 9.13568C65.2557 8.84768 64.781 8.70368 64.1517 8.70368H61.9757V11.8877ZM73.7986 18.5437C73.0306 18.5437 72.3372 18.3677 71.7186 18.0157C71.1106 17.653 70.6306 17.157 70.2786 16.5277C69.9372 15.8877 69.7666 15.157 69.7666 14.3357C69.7666 13.493 69.9426 12.757 70.2946 12.1277C70.6466 11.4877 71.1266 10.9917 71.7346 10.6397C72.3532 10.277 73.0466 10.0957 73.8146 10.0957C74.5826 10.0957 75.2706 10.277 75.8786 10.6397C76.4972 10.9917 76.9772 11.4824 77.3186 12.1117C77.6706 12.741 77.8466 13.477 77.8466 14.3197C77.8466 15.1624 77.6706 15.8984 77.3186 16.5277C76.9666 17.157 76.4812 17.653 75.8626 18.0157C75.2546 18.3677 74.5666 18.5437 73.7986 18.5437ZM73.7986 16.8957C74.1826 16.8957 74.5292 16.7997 74.8386 16.6077C75.1586 16.4157 75.4146 16.1277 75.6066 15.7437C75.7986 15.3597 75.8946 14.885 75.8946 14.3197C75.8946 13.7544 75.7986 13.285 75.6066 12.9117C75.4252 12.5277 75.1746 12.2397 74.8546 12.0477C74.5452 11.8557 74.1986 11.7597 73.8146 11.7597C73.4412 11.7597 73.0946 11.8557 72.7746 12.0477C72.4546 12.2397 72.1986 12.5277 72.0066 12.9117C71.8146 13.285 71.7186 13.7544 71.7186 14.3197C71.7186 14.885 71.8146 15.3597 72.0066 15.7437C72.1986 16.1277 72.4492 16.4157 72.7586 16.6077C73.0786 16.7997 73.4252 16.8957 73.7986 16.8957ZM82.9176 18.3517C82.3736 18.3517 81.8989 18.2664 81.4936 18.0957C81.0989 17.925 80.7896 17.6424 80.5656 17.2477C80.3416 16.853 80.2296 16.3197 80.2296 15.6477V11.9037H78.8536V10.2877H80.2296L80.4536 8.15968H82.1496V10.2877H84.3416V11.9037H82.1496V15.6477C82.1496 16.053 82.2349 16.3357 82.4056 16.4957C82.5869 16.645 82.8856 16.7197 83.3016 16.7197H84.2936V18.3517H82.9176Z" fill="white"/>
<path d="M12.5866 6.60307V2.4364H8.41992M2.16992 12.8531H4.25326M9.46159 11.8114V13.8947M15.7116 11.8114V13.8947M20.9199 12.8531H23.0033M8.41992 19.1031L4.25326 23.2697V8.6864C4.25326 8.13387 4.47275 7.60396 4.86345 7.21326C5.25415 6.82256 5.78405 6.60307 6.33659 6.60307H18.8366C19.3891 6.60307 19.919 6.82256 20.3097 7.21326C20.7004 7.60396 20.9199 8.13387 20.9199 8.6864V17.0197C20.9199 17.5723 20.7004 18.1022 20.3097 18.4929C19.919 18.8836 19.3891 19.1031 18.8366 19.1031H8.41992Z" stroke="white" stroke-width="1.66667" stroke-linecap="round" stroke-linejoin="round"/>
</svg>
